STARTFONT 2.1
FONT -Gww-Caslon-Roman-R-Normal--17-120-100-100-P-101-ISO10646-1
SIZE 12 100 100
FONTBOUNDINGBOX 30 25 -17 -11
STARTPROPERTIES 28
FONT_ASCENT 12
FONT_DESCENT 4
QUAD_WIDTH 17
X_HEIGHT 8
CAP_HEIGHT 11
FONTNAME_REGISTRY ""
FAMILY_NAME "Caslon"
FOUNDRY "GWW"
WEIGHT_NAME "Roman"
SETWIDTH_NAME "Normal"
SLANT "R"
ADD_STYLE_NAME ""
PIXEL_SIZE 17
POINT_SIZE 120
RESOLUTION_X 100
RESOLUTION_Y 100
RESOLUTION 100
SPACING "P"
AVERAGE_WIDTH 101
DEFAULT_CHAR 65533
_XFREE86_GLYPH_RANGES "32_126 160_543 546_563 592_685 688_734 736_750 768_846 864_866 884_885 890 894 900_906 908 910_929 931_974 976_983 986_1011 1024_1158 1160_1161 1164_1220 1223_1224 1227_1228 1232_1269 1272_1273 1280_1295 1329_1366 1369_1375 1377_1415 1417 1425_1441 1443_1465 1467_1476"
_XFREE86_GLYPH_RANGES "1488_1514 1520_1525 3585_3642 3647_3674 5701 5760_5788 5792_5796 5798_5847 5849_5872 7680_7835 7840_7929 7936_7957 7960_7965 7968_8005 8008_8013 8016_8023 8025 8027 8029 8031_8061 8064_8116 8118_8132 8134_8147 8150_8155 8157_8175 8178_8180 8182_8190 8192_8205 8208_8238"
_XFREE86_GLYPH_RANGES "8240_8262 8264_8269 8304 8308_8334 8352_8367 8400_8419 8448_8506 8531_8579 8592_8691 8704_8945 8960 8962_9013 9078_9081 9216_9254 9312_9331 9398_9450 9472_9621 9632_9719 9728_9747 9754_9841 10086_10087 12288 12295 12304_12305 12321_12323 12326_12328 12353_12436 12441_12446"
_XFREE86_GLYPH_RANGES "12449_12542 63166 64256_64268 64272 64297_64310 64312_64316 64318 64320_64321 64323_64324 64326_64335 65281_65374 65377_65439 65504_65510 65512_65518 65533"
CHARSET_REGISTRY "UNICODE"
CHARSET_ENCODING "1"
CHARSET_COLLECTIONS "ASCII ISO8859-1 UNICODE ISO10646-1"
FULL_NAME "CaslonRoman-Unicode"
ENDPROPERTIES
CHARS 2
STARTCHAR space
ENCODING 32
SWIDTH 236 0
DWIDTH 4 0
BBX 0 0 0 0
BITMAP
ENDCHAR
STARTCHAR exclam
ENCODING 160000
SWIDTH 217 0
DWIDTH 4 0
BBX 3 12 1 0
BITMAP
40
e0
e0
e0
e0
40
40
40
00
40
e0
40
ENDCHAR
ENDFONT
